<?xml version="1.0" standalone="no"?>
<!DOCTYPE svg PUBLIC "-//W3C//DTD SVG 20010904//EN"
 "http://www.w3.org/TR/2001/REC-SVG-20010904/DTD/svg10.dtd">
<svg version="1.0" xmlns="http://www.w3.org/2000/svg"
 width="416.000000pt" height="416.000000pt" viewBox="0 0 416.000000 416.000000"
 preserveAspectRatio="xMidYMid meet">

<g transform="translate(0.000000,416.000000) scale(0.100000,-0.100000)"
fill="#000000" stroke="none">
<path d="M2040 3499 c-371 -65 -723 -319 -884 -636 l-26 -53 -68 0 c-88 0
-168 -21 -269 -70 -149 -73 -317 -259 -388 -429 -32 -77 -65 -202 -65 -246 0
-18 -13 -52 -32 -81 -57 -89 -99 -190 -118 -285 -24 -114 -25 -172 -4 -279 68
-358 316 -632 656 -722 83 -22 84 -22 1233 -26 814 -2 1169 0 1214 8 182 31
379 152 500 304 169 213 228 489 161 751 -52 204 -198 389 -378 478 -51 25
-108 49 -127 53 l-35 6 1 127 c2 185 -27 313 -103 466 -121 241 -350 454 -594
552 -164 66 -260 85 -449 89 -93 1 -195 -1 -225 -7z m65 -334 c107 -27 201
-81 279 -159 113 -112 156 -216 156 -373 0 -107 -18 -159 -114 -338 -87 -161
-111 -240 -102 -330 10 -95 35 -154 91 -212 79 -81 144 -90 257 -32 42 21 99
24 147 8 59 -21 123 25 155 113 24 65 86 132 154 165 51 25 68 28 157 28 96 0
104 -2 177 -37 91 -45 191 -146 232 -233 84 -177 68 -403 -42 -575 -77 -121
-222 -229 -352 -261 -45 -12 -263 -14 -1200 -14 l-1145 0 -80 28 c-110 39
-207 102 -291 189 -108 111 -156 209 -175 349 -19 140 29 296 124 408 47 55
47 55 47 130 1 162 53 297 161 414 107 117 232 164 407 152 120 -9 135 0 176
104 72 183 244 374 394 438 120 51 275 66 387 38z"/>
</g>
</svg>
